<svg width="32" height="32" viewBox="0 0 32 32" fill="none" xmlns="http://www.w3.org/2000/svg">
  <rect width="32" height="32" rx="6" fill="#2563EB"/>
  <path d="M8 10L11 11M11 11L8 20C8.93464 20.6768 10.2223 21.0059 11.5 21.0059C12.7777 21.0059 14.0654 20.6768 15 20L11 11ZM11 11L16 9M21 11L24 10M21 11L18 20C18.9346 20.6768 20.2223 21.0059 21.5 21.0059C22.7777 21.0059 24.0654 20.6768 25 20L21 11ZM21 11L16 9M16 7V9M16 9V25M16 25H13M16 25H19" stroke="white" stroke-width="2" stroke-linecap="round" stroke-linejoin="round"/>
</svg>
